Coordinates
version=1
nRows=17
nColumns=23
inDegrees=yes

Units are S.I. units (second, meters, Newtons, ...)
If the header above contains a line with 'inDegrees', this indicates whether rotational values are in degrees (yes) or radians (no).

endheader
time	pelvis_tilt	pelvis_list	pelvis_rotation	pelvis_tx	pelvis_ty	pelvis_tz	hip_flexion_r	hip_adduction_r	hip_rotation_r	knee_angle_r	knee_angle_r_beta	ankle_angle_r	subtalar_angle_r	mtp_angle_r	hip_flexion_l	hip_adduction_l	hip_rotation_l	knee_angle_l	knee_angle_l_beta	ankle_angle_l	subtalar_angle_l	mtp_angle_l
      7.50000000	     -7.81826866	      9.34359450	     11.21289910	      2.17835894	      0.94027078	      1.05438657	     -6.77727616	    -20.76478865	    -28.08878603	     94.28524168	      1.64558790	    -18.02265583	    -29.11049977	      0.00000000	     29.47447836	     15.74486402	    -12.50054702	     28.28931015	      0.49374161	      1.75224898	    -13.30219548	      0.00000000
      7.50666667	     -8.33504714	     10.07108137	     11.77569220	      2.17457047	      0.93617647	      1.05366844	     -3.50854694	    -22.23575155	    -26.77759855	     98.55875605	      1.72017480	    -17.02344906	    -29.21981769	      0.00000000	     29.35959305	     16.81789964	    -11.60359434	     30.63657216	      0.53470906	      3.90334948	    -15.14958679	      0.00000000
      7.51333333	     -8.88461428	     10.59065365	     12.26004737	      2.17046196	      0.93251893	      1.05331144	      0.19455601	    -23.32454715	    -24.99317801	    102.53941511	      1.78965041	    -16.13248557	    -29.25550048	      0.00000000	     29.23400277	     17.65857016	    -10.50873923	     32.87637371	      0.57380097	      6.06544565	    -16.77996730	      0.00000000
      7.52000000	     -9.42719294	     10.93500510	     12.62339665	      2.16618809	      0.92938840	      1.05326798	      4.25947286	    -24.04705971	    -22.77191165	    106.17214703	      1.85305354	    -15.36382415	    -29.23432837	      0.00000000	     29.00686462	     18.25277577	     -9.34541062	     34.90542038	      0.60921451	      8.13090030	    -18.13856530	      0.00000000
      7.52666667	     -9.91693310	     10.99457145	     12.88678298	      2.16191053	      0.92679496	      1.05355779	      8.57806752	    -24.24492622	    -20.28524352	    109.37935228	      1.90902983	    -14.67290865	    -29.13221614	      0.00000000	     28.64878698	     18.45240021	     -8.15888660	     36.79311440	      0.64216099	     10.25658829	    -18.97635915	      0.00000000
      7.53333333	    -10.34270551	     10.81148443	     12.95414708	      2.15774999	      0.92484551	      1.05428440	     13.11251243	    -23.89976537	    -17.53726454	    112.12603277	      1.95696845	    -14.04835302	    -28.91484216	      0.00000000	     28.08562679	     18.26464765	     -7.03263925	     38.36838817	      0.66965470	     12.24320474	    -19.37754359	      0.00000000
      7.54000000	    -10.68583908	     10.64270286	     12.75479807	      2.15390947	      0.92338719	      1.05536985	     17.71948344	    -23.36435958	    -14.54715409	    114.42278717	      1.99705438	    -13.41297346	    -28.45364732	      0.00000000	     27.25818918	     17.88322929	     -6.22570392	     39.59009616	      0.69097753	     14.14081388	    -19.38131190	      0.00000000
      7.54666667	    -10.71861385	     10.16763005	     12.37354082	      2.15045792	      0.92283557	      1.05672386	     22.02661784	    -22.19492780	    -11.71712484	    116.13505078	      2.02693901	    -12.57860281	    -27.41543067	      0.00000000	     25.96618727	     17.01830448	     -5.49471846	     40.52980203	      0.70737849	     15.76960918	    -19.26512892	      0.00000000
      7.55333333	    -11.01939906	      9.91887005	     11.74044725	      2.14731792	      0.92219036	      1.05816023	     26.67684739	    -21.17758340	     -8.64118145	    117.47948121	      2.05040375	    -11.56116425	    -25.67444879	      0.00000000	     24.74414977	     16.30049013	     -5.20925018	     41.02147662	      0.71595983	     17.32113481	    -18.55045309	      0.00000000
      7.56000000	    -11.05876260	      9.52754515	     10.92461080	      2.14466143	      0.92228230	      1.05959743	     30.90915451	    -19.79024397	     -5.82222242	    118.24858240	      2.06382710	    -10.30405292	    -23.35911418	      0.00000000	     23.08459777	     15.32680199	     -5.10575686	     41.19886737	      0.71905588	     18.53036560	    -17.92463495	      0.00000000
      7.56666667	    -11.04355172	      9.10266103	      9.92077549	      2.14241652	      0.92281074	      1.06104550	     34.92788417	    -18.19090465	     -3.19696884	    118.49375217	      2.06810612	     -9.05068814	    -20.92465630	      0.00000000	     21.19551107	     14.26698982	     -5.25830603	     41.00396345	      0.71565417	     19.35141479	    -17.20581991	      0.00000000
      7.57333333	    -11.05136536	      8.63072396	      8.73883709	      2.14051280	      0.92367753	      1.06254093	     38.76967491	    -16.36373143	     -0.81048206	    118.21926732	      2.06331545	     -7.91125423	    -18.76983426	      0.00000000	     19.19338734	     13.15083865	     -5.66986894	     40.48286083	      0.70655921	     19.76783911	    -16.50719354	      0.00000000
      7.58000000	    -11.07106665	      8.11332685	      7.42186128	      2.13894060	      0.92488616	      1.06401819	     42.36079219	    -14.36382940	      1.25354415	    117.43217977	      2.04957818	     -6.91707702	    -17.07011243	      0.00000000	     17.06574069	     12.01691232	     -6.28558503	     39.64388774	      0.69191637	     19.75750685	    -15.78260542	      0.00000000
      7.58666667	    -11.09285295	      7.42744492	      6.09826321	      2.13773200	      0.92659791	      1.06536605	     45.57680834	    -12.19037482	      2.76128487	    116.08682311	      2.02609728	     -6.08940425	    -15.98059999	      0.00000000	     14.81031224	     10.83036320	     -6.82885431	     38.48473990	      0.67168542	     19.03779960	    -15.40555159	      0.00000000
      7.59333333	    -11.28619440	      6.86908118	      4.59264197	      2.13677112	      0.92822763	      1.06690687	     48.72790066	     -9.98184628	      4.15764848	    114.34505795	      1.99569774	     -5.32669615	    -15.48840757	      0.00000000	     12.65359726	      9.79745688	     -7.76458807	     37.11429415	      0.64776663	     18.06438387	    -14.72863214	      0.00000000
      7.60000000	    -11.62272586	      6.28463654	      3.15696436	      2.13619541	      0.93002354	      1.06831564	     51.64548340	     -7.84757872	      5.09939386	    112.13589755	      1.95714062	     -4.66293869	    -15.61278224	      0.00000000	     10.56622851	      8.83889378	     -8.74849329	     35.53088574	      0.62013094	     16.43681320	    -13.97573134	      0.00000000
      7.60666667	    -11.94236424	      5.66832083	      1.63340981	      2.13597204	      0.93217357	      1.06994826	     54.17786561	     -5.59892331	      5.74518486	    109.47214766	      1.91064942	     -4.18758537	    -16.50591280	      0.00000000	      8.39829673	      7.92064490	     -9.80380333	     33.75165975	      0.58907759	     14.40903698	    -13.18563467	      0.00000000
